<svg version="1.1" id="Layer_1" xmlns="http://www.w3.org/2000/svg" xmlns:xlink="http://www.w3.org/1999/xlink" x="0px" y="0px"
	 width="100%" viewBox="0 0 500 500" enable-background="new 0 0 500 500" xml:space="preserve">
<path fill="#001E2B" opacity="1.000000" stroke="none" 
	d="
M233.000000,501.000000 
	C155.333359,501.000000 78.166702,501.000000 1.000041,501.000000 
	C1.000028,334.333405 1.000028,167.666779 1.000014,1.000131 
	C167.666565,1.000087 334.333130,1.000087 500.999756,1.000044 
	C500.999847,167.666519 500.999847,334.333038 500.999939,500.999786 
	C411.833344,501.000000 322.666656,501.000000 233.000000,501.000000 
M368.992188,391.480865 
	C368.893433,391.797913 368.865387,392.121124 368.016327,392.607117 
	C366.429657,392.701874 364.842987,392.796631 363.340363,392.886383 
	C363.340363,396.143005 363.340363,399.026093 363.340363,401.847412 
	C368.261658,402.600525 372.730774,400.434357 377.630707,402.298584 
	C379.818085,403.130768 384.052094,400.428253 386.386719,398.276764 
	C387.615906,397.144012 387.545837,393.355499 386.621124,391.474792 
	C385.657166,389.514221 382.959473,388.406097 381.042145,386.436188 
	C381.136749,386.115631 381.149200,385.791901 381.977570,385.354797 
	C383.563354,385.268555 385.149139,385.182343 387.004883,385.081421 
	C387.004883,383.274963 387.035065,381.802338 386.996307,380.331512 
	C386.958862,378.911499 386.850250,377.493378 386.760590,375.848114 
	C384.521149,376.024353 382.728729,376.160095 380.937317,376.308197 
	C379.713684,376.409424 378.292114,376.989014 377.302246,376.560974 
	C372.316956,374.405273 366.259949,375.721008 364.061371,379.687317 
	C361.867859,383.644501 363.459167,387.285187 368.992188,391.480865 
M407.078827,386.381317 
	C407.163055,386.052826 407.159180,385.725342 407.980469,385.343872 
	C409.590515,385.265930 411.200562,385.187988 412.848175,385.108246 
	C412.848175,381.882019 412.848175,378.986908 412.848175,375.582184 
	C407.954193,376.825226 403.621368,376.884552 398.938934,375.607666 
	C395.399475,374.642456 391.243103,376.494965 389.891937,380.915680 
	C388.637665,385.019470 390.452850,387.996948 393.956879,390.138794 
	C394.802155,390.655457 395.569977,391.298859 396.978943,392.325012 
	C393.850708,392.580322 391.597717,392.764191 389.423218,392.941650 
	C389.423218,396.151855 389.423218,398.923615 389.423218,402.907379 
	C392.189911,401.807526 394.361023,400.214417 396.473419,400.288818 
	C399.133026,400.382507 401.708954,401.987701 404.395020,402.632172 
	C405.425964,402.879517 407.000458,402.654694 407.739105,401.990723 
	C409.945801,400.007019 413.066162,397.922028 413.522583,395.450531 
	C413.911469,393.344574 411.211578,390.576447 409.648102,388.256195 
	C409.162323,387.535248 407.924927,387.320770 407.078827,386.381317 
M304.534454,250.919937 
	C304.895691,246.037903 305.256958,241.155884 305.617523,236.282974 
	C307.627930,236.011520 309.371094,235.776138 311.193451,235.530060 
	C311.397888,232.934219 311.577484,230.653458 311.888123,226.708725 
	C314.979218,228.430573 317.210022,229.673187 320.153198,231.312637 
	C320.153198,227.080566 320.153198,223.227097 320.153198,219.347702 
	C322.157318,219.347702 323.419312,219.347702 325.141693,219.347702 
	C325.141693,222.371857 324.964478,225.193008 325.240784,227.969025 
	C325.333679,228.902390 326.579834,229.720993 327.298920,230.592056 
	C327.880463,229.781418 328.688446,229.043793 328.979980,228.139648 
	C329.272247,227.233032 329.051788,226.160278 329.051788,225.160355 
	C329.051727,191.162018 329.051178,157.163666 329.050659,123.165329 
	C329.050629,121.550652 329.050659,119.935966 329.050659,117.598030 
	C327.119293,118.564941 325.807556,119.143410 324.571228,119.853264 
	C316.483459,124.497078 308.500183,129.333282 300.290222,133.748581 
	C297.166901,135.428299 296.277649,137.470932 296.289276,140.853485 
	C296.401031,173.351517 296.387695,205.850174 296.307800,238.348389 
	C296.299652,241.653534 296.426910,244.397964 300.597809,244.137360 
	C301.247742,249.998947 301.247742,249.998947 304.534454,250.919937 
M195.450912,135.040390 
	C188.822418,138.880463 182.083878,142.549088 175.643845,146.682755 
	C174.060287,147.699173 172.540985,150.225983 172.528564,152.068787 
	C172.334259,180.896881 172.221329,209.728943 172.603241,238.553299 
	C172.652267,242.253525 175.474899,245.966248 177.283325,249.536072 
	C177.529221,250.021439 179.360550,249.703629 181.075638,249.788147 
	C181.075638,244.683929 181.075638,239.932419 181.075638,235.206512 
	C183.409546,234.809357 185.153519,234.512604 186.960068,234.205185 
	C187.147766,231.660141 187.315063,229.391861 187.589722,225.667603 
	C190.565201,227.260468 192.673721,228.389221 195.422150,229.860550 
	C195.548569,227.383789 195.864410,224.738113 195.775772,222.106064 
	C195.640915,218.102020 197.189087,217.085831 201.019363,218.758118 
	C201.019363,221.697128 200.873245,224.529388 201.111435,227.328949 
	C201.179871,228.133377 202.357452,228.843445 203.026520,229.596786 
	C203.689880,228.838318 204.548569,228.170120 204.954147,227.292511 
	C205.272705,226.603180 205.038055,225.655151 205.038086,224.822052 
	C205.039230,194.826141 205.042648,164.830215 205.028076,134.834305 
	C205.027390,133.403229 204.865738,131.972229 204.733383,129.787308 
	C201.501663,131.623138 198.799530,133.158142 195.450912,135.040390 
M242.005112,235.607880 
	C242.016495,237.272873 241.851685,238.966827 242.118530,240.589813 
	C242.239899,241.328049 243.215271,241.925873 243.803268,242.587387 
	C244.536407,241.904083 245.550232,241.345108 245.923553,240.502396 
	C246.295212,239.663391 246.033081,238.539566 246.033127,237.540619 
	C246.034668,211.563263 246.039658,185.585907 246.020340,159.608566 
	C246.019196,158.059738 245.820862,156.511047 245.655472,154.107666 
	C234.841156,160.355301 224.762085,166.097946 214.811218,172.054718 
	C213.847336,172.631714 213.209534,174.533386 213.207214,175.821548 
	C213.160324,201.961060 213.227066,228.100784 213.292084,254.240417 
	C213.292786,254.522949 213.572083,254.804810 213.773361,255.185379 
	C214.934174,255.562027 216.161758,255.960327 216.726990,256.143707 
	C218.888290,258.524109 215.412048,264.125061 222.248428,262.734863 
	C222.248428,257.920593 222.248428,253.161774 222.248428,248.307022 
	C224.499329,248.033295 226.255447,247.819748 227.726303,247.640869 
	C228.438492,244.859543 229.067902,242.401505 229.697296,239.943436 
	C231.923111,240.847000 234.148926,241.750565 236.924072,242.877121 
	C236.924072,239.113846 236.924072,235.390961 236.924072,231.724594 
	C240.485382,230.537643 242.342682,231.007706 242.005112,235.607880 
M270.404297,204.928741 
	C270.404297,203.134399 270.404297,201.340057 270.404297,197.797043 
	C273.888275,199.554153 276.242157,200.741318 279.188110,202.227097 
	C279.188110,198.032043 279.188110,194.153702 279.188110,189.966385 
	C281.238098,190.169708 282.624115,190.307175 283.941406,190.437820 
	C284.531525,201.484924 284.531525,201.484924 287.862091,201.579132 
	C287.862091,183.418381 287.862091,165.263107 287.862091,146.366348 
	C277.284088,152.475815 267.230316,158.207916 257.293518,164.136124 
	C256.289978,164.734818 255.460190,166.513351 255.449478,167.752136 
	C255.322861,182.385193 255.335434,197.019958 255.433746,211.653458 
	C255.440994,212.731415 256.360535,214.708572 256.909424,214.727631 
	C259.997833,214.834869 259.886536,216.832748 259.721588,218.862762 
	C259.418274,222.595749 261.455078,222.304398 264.406006,221.656784 
	C264.406006,216.690018 264.406006,211.955170 264.406006,207.763229 
	C266.768860,206.972046 268.529846,206.382370 270.404297,204.928741 
M149.028915,365.638428 
	C144.955261,367.100677 146.845352,369.878906 147.631271,372.317749 
	C148.173859,374.001434 149.482132,375.569336 149.580750,377.240173 
	C149.854721,381.882233 149.704422,386.551331 149.654449,391.209045 
	C149.642456,392.325134 149.592667,393.533173 149.169556,394.533691 
	C148.237259,396.738129 147.055801,398.837189 145.592728,401.739716 
	C152.600082,401.739716 157.995865,401.739716 164.016388,401.739716 
	C163.668167,399.385132 163.984390,396.044922 162.963562,395.568268 
	C158.526199,393.496399 161.052521,390.433563 160.829681,387.554688 
	C164.047577,387.554688 166.916977,387.554688 170.293991,387.554688 
	C170.095947,390.141449 170.621078,393.955353 169.627777,394.403442 
	C165.395432,396.312805 167.685287,399.158722 167.382599,401.675598 
	C173.200638,401.675598 178.598679,401.675598 185.161682,401.675598 
	C179.165070,389.598663 179.796555,377.803589 184.827271,365.953278 
	C178.232544,365.953278 172.826202,365.953278 166.972229,365.953278 
	C167.215454,368.239044 166.814270,371.429962 167.727295,371.865448 
	C172.090942,373.946686 169.545380,377.116730 170.028595,379.934204 
	C166.673615,379.934204 163.764542,379.934204 160.273834,379.934204 
	C160.613510,377.377838 160.580338,375.060272 161.288635,372.997223 
	C162.042145,370.802460 163.497910,368.848785 165.294876,365.629120 
	C158.862671,365.629120 154.398285,365.629120 149.028915,365.638428 
M123.027626,374.661926 
	C118.632675,366.206543 109.684891,362.617035 100.249062,365.523956 
	C91.202690,368.310944 86.529633,376.892395 88.064308,387.899750 
	C89.352325,397.137939 96.280968,402.899567 106.177292,402.961945 
	C116.490761,403.026917 123.138779,397.741394 124.327637,387.659363 
	C124.798454,383.666626 123.697105,379.488525 123.027626,374.661926 
M191.889206,306.789429 
	C194.912674,307.506348 197.936142,308.223267 201.556534,309.081726 
	C201.556534,305.410645 201.556549,303.103760 201.556549,300.796875 
	C201.556549,298.530975 201.556534,296.265076 201.556534,292.875549 
	C197.999985,293.739868 195.307205,294.461731 192.580109,295.014313 
	C191.800491,295.172302 190.836578,295.030060 190.101303,294.702240 
	C183.540741,291.776978 177.627197,293.218170 172.869217,298.983795 
	C166.173157,307.097931 166.845749,320.355713 174.273682,326.668304 
	C182.212982,333.415466 194.188721,332.069489 202.258255,323.265472 
	C200.395523,321.236023 198.508469,319.180054 196.526993,317.021240 
	C195.502182,317.897461 194.742981,319.004669 193.736343,319.318756 
	C191.048264,320.157532 187.633820,321.921295 185.664536,320.956635 
	C183.393860,319.844330 181.917358,316.360809 180.946304,313.607147 
	C180.290726,311.748138 180.551163,309.107666 181.410309,307.294647 
	C182.375702,305.257446 184.294724,302.659943 186.136551,302.356659 
	C187.735855,302.093262 189.806290,304.691010 191.889206,306.789429 
M267.432343,402.120789 
	C273.858002,403.122284 278.332123,401.516205 280.753143,396.885437 
	C283.667755,391.310638 283.582581,385.637970 280.034943,380.333221 
	C277.090820,375.930939 272.653259,374.833618 266.253265,376.455231 
	C265.400299,376.671356 264.454224,376.594635 263.556793,376.547699 
	C259.513275,376.336182 255.471786,376.086548 250.292557,375.784332 
	C254.805496,388.521698 254.165344,400.454620 250.871536,412.417389 
	C256.859253,412.417389 261.769348,412.417389 267.250458,412.417389 
	C266.834076,410.008667 266.689117,407.945435 266.077789,406.031158 
	C265.610504,404.567963 264.553070,403.293182 263.758179,401.934601 
	C264.102173,401.726654 264.446167,401.518738 264.790192,401.310791 
	C265.413544,401.527069 266.036896,401.743317 267.432343,402.120789 
M248.911957,384.756378 
	C246.211105,378.069824 242.646973,375.421478 236.816452,375.625427 
	C231.835770,375.799622 226.850937,375.852722 221.868958,375.994873 
	C220.604477,376.030975 219.343872,376.202209 217.263779,376.382050 
	C221.661972,388.556000 220.785507,400.486359 217.694351,412.363922 
	C223.642395,412.363922 228.541565,412.363922 234.554276,412.363922 
	C233.122681,408.272125 231.953827,404.931335 230.574066,400.987732 
	C237.103241,403.346283 242.963684,403.663025 246.275711,398.214539 
	C248.400040,394.719910 248.189575,389.806061 248.911957,384.756378 
M303.676605,383.895905 
	C303.045288,389.840881 302.413971,395.785828 301.786652,401.693451 
	C307.225525,401.693451 312.309875,401.693451 317.619873,401.693451 
	C317.505096,398.495209 319.260498,394.851074 313.931458,394.677643 
	C313.931458,392.259491 313.521454,389.997345 314.054413,387.984924 
	C314.525085,386.207703 316.047333,384.708923 317.105286,383.087219 
	C318.066956,384.730164 319.712036,386.314789 319.858063,388.027313 
	C320.246918,392.587280 319.990295,397.202271 319.990295,401.724365 
	C324.726166,401.724365 328.817932,401.724365 333.137787,401.724365 
	C332.316956,396.300659 331.488800,391.197906 330.787750,386.077698 
	C330.243774,382.104919 330.137512,377.970703 325.726379,375.957458 
	C321.380707,373.974152 317.644104,375.254456 315.638947,377.016510 
	C310.213104,376.501709 306.107178,376.112122 300.505280,375.580627 
	C301.681610,378.919586 302.427002,381.035461 303.676605,383.895905 
M283.112366,318.316162 
	C283.705566,327.369263 286.634888,331.172668 293.299744,330.703552 
	C295.940979,330.517639 298.491913,329.049500 301.083984,328.165192 
	C301.007721,328.540100 300.931427,328.915009 300.855164,329.289917 
	C304.489532,329.615387 308.123901,329.940826 312.237823,330.309235 
	C312.237823,328.030884 312.926056,325.821899 312.122070,324.859497 
	C308.018524,319.947418 310.562134,314.298279 309.904175,309.041626 
	C309.707458,307.469910 309.873779,305.852722 309.873779,304.284180 
	C304.963104,304.284180 300.710999,304.284180 295.214142,304.284180 
	C296.462769,307.404480 297.432037,309.826630 298.401276,312.248749 
	C298.841278,312.095428 299.281250,311.942108 299.721252,311.788788 
	C299.721252,313.783844 300.105682,315.880646 299.612396,317.745178 
	C299.125519,319.585663 297.750793,321.191254 296.765533,322.899872 
	C295.786774,321.272339 294.110596,319.705078 293.963837,318.005676 
	C293.569580,313.441254 293.829285,308.820343 293.829285,304.244568 
	C289.149628,304.244568 285.215607,304.244568 280.761475,304.244568 
	C281.584778,308.862213 282.346313,313.133575 283.112366,318.316162 
M212.692261,383.316742 
	C209.224213,373.740753 197.465347,371.406250 187.582626,378.591553 
	C188.184372,380.291473 188.818634,382.083313 189.449509,383.865570 
	C198.809265,380.768402 200.907776,381.100220 201.702316,385.621063 
	C201.395996,385.589569 201.081375,385.592621 200.784561,385.521484 
	C194.700287,384.063080 189.955429,385.474823 187.596191,389.580780 
	C185.572189,393.103302 185.636765,396.609283 188.336975,399.765869 
	C191.394821,403.340454 196.247528,403.760559 202.018509,401.193390 
	C202.626984,400.922729 203.385147,400.778046 204.039993,400.856750 
	C207.958298,401.327698 211.866684,401.881287 215.922333,402.426483 
	C214.763611,395.626556 213.787140,389.896210 212.692261,383.316742 
M353.240784,376.029968 
	C345.162292,374.049744 338.604919,376.461273 335.663513,382.494171 
	C332.685242,388.602692 334.294830,396.256592 339.373016,400.133789 
	C345.222015,404.599396 354.414673,403.878815 361.253052,398.204681 
	C359.897858,396.627777 358.548950,395.058197 357.318329,393.626251 
	C349.539215,396.946289 347.439148,396.652405 344.997375,391.819153 
	C350.312988,391.819153 355.425842,391.819153 360.422211,391.819153 
	C362.521393,383.848053 360.842163,379.981384 353.240784,376.029968 
M256.575470,305.926910 
	C250.919373,310.822754 249.270493,317.276123 252.155243,323.226624 
	C254.863403,328.812836 261.839600,331.783478 268.745209,330.291046 
	C275.399506,328.852936 279.226593,324.433472 279.534393,317.831879 
	C280.071014,306.322327 268.985504,300.198914 256.575470,305.926910 
M223.996338,329.782745 
	C231.668732,325.856171 234.467194,319.116577 231.516647,311.671448 
	C228.978149,305.266113 221.541428,301.972931 214.039810,303.932190 
	C206.915710,305.792877 202.984726,311.891937 204.026245,319.468536 
	C205.159027,327.709015 213.111221,332.059296 223.996338,329.782745 
M139.189621,390.300110 
	C139.189621,387.996490 139.189621,385.692841 139.189621,383.224731 
	C140.953232,382.957672 142.350769,382.746063 143.804932,382.525848 
	C143.804932,380.289459 143.804932,378.347046 143.804932,376.271118 
	C142.234802,376.055969 140.828888,375.863342 138.276291,375.513550 
	C139.398865,372.988556 140.155380,369.354889 141.203705,369.268646 
	C145.388580,368.924438 145.418121,365.978790 146.518326,363.213013 
	C144.908691,362.829987 143.635895,362.410309 142.330322,362.235260 
	C133.433136,361.042297 129.557098,364.186615 128.939072,372.981049 
	C128.872055,373.934479 128.885361,375.156372 128.328064,375.766907 
	C125.967384,378.353088 127.072304,380.262787 128.203156,383.209839 
	C129.518997,386.638977 128.755325,390.977051 128.430313,394.882050 
	C128.244034,397.120422 127.136986,399.282196 126.335014,401.825562 
	C132.311707,401.825562 137.086014,401.825562 142.649704,401.825562 
	C141.419235,399.193054 144.440155,395.616577 139.500519,394.513855 
	C139.166412,394.439240 139.282837,392.346527 139.189621,390.300110 
M243.391449,330.021759 
	C245.329315,330.021759 247.267181,330.021759 249.416565,330.021759 
	C249.416565,327.676239 250.093857,324.756744 249.306427,324.285706 
	C244.267609,321.271362 246.800934,316.631042 246.589478,312.796997 
	C246.192642,305.602142 246.475159,298.369781 246.475159,291.312683 
	C241.925461,291.312683 238.183716,291.312683 234.597214,291.312683 
	C235.231720,298.006104 236.307419,304.352203 236.300690,310.697174 
	C236.294037,316.975769 235.194992,323.253174 234.526642,330.021759 
	C237.204346,330.021759 239.825592,330.021759 243.391449,330.021759 
M326.489746,321.380676 
	C325.727661,315.740173 327.649628,312.014221 333.531799,311.709412 
	C333.531799,308.497589 333.531799,305.762207 333.531799,302.026764 
	C330.426300,303.496674 328.001038,304.644623 325.575806,305.792542 
	C325.659302,305.482849 325.742828,305.173187 325.826324,304.863495 
	C322.063751,304.502441 318.301178,304.141357 312.695343,303.603424 
	C317.624359,312.956879 317.743988,321.223175 313.118195,329.732635 
	C319.328064,329.732635 324.058594,329.732635 330.330292,329.732635 
	C328.830750,326.710541 327.733154,324.498505 326.489746,321.380676 
M284.629272,376.864838 
	C285.225800,379.083130 286.151520,381.273346 286.343536,383.526093 
	C286.649475,387.115753 286.780914,390.782196 286.381439,394.348419 
	C286.111389,396.759186 284.802856,399.053650 283.847015,401.711090 
	C289.749634,401.711090 294.343018,401.711090 298.492340,401.711090 
	C297.899567,394.309814 297.329803,387.190460 296.758728,380.071228 
	C296.656189,378.792725 296.548187,377.514679 296.438080,376.180878 
	C292.471069,376.180878 288.829559,376.180878 284.629272,376.864838 
M286.069794,367.692200 
	C286.176361,368.503876 286.081635,369.414520 286.423737,370.110443 
	C288.052307,373.423340 291.872742,374.686401 294.778168,372.775146 
	C297.620575,370.905273 298.054382,368.276978 296.196533,365.482971 
	C294.217010,362.506012 290.384766,362.268982 287.547180,364.861877 
	C286.960236,365.398193 286.652863,366.240540 286.069794,367.692200 
M275.069519,216.540039 
	C275.069519,214.451324 275.069519,212.362610 275.069519,210.028534 
	C273.097107,210.132965 271.838745,210.199585 270.350769,210.278381 
	C270.350769,215.269775 270.350769,219.993256 270.350769,225.015884 
	C271.844727,225.015884 273.240509,225.015884 275.069489,225.015884 
	C275.069489,222.359360 275.069489,219.919434 275.069519,216.540039 
M175.946762,256.689240 
	C175.947083,258.848969 175.677856,261.056305 176.047775,263.150757 
	C176.273422,264.428223 177.483002,265.531921 178.250671,266.713654 
	C179.126770,265.461121 180.507889,264.303345 180.764694,262.934601 
	C181.186218,260.687927 181.159302,258.256500 180.774811,255.995972 
	C180.534912,254.585510 179.290894,253.345840 178.497498,252.029526 
	C177.647736,253.274445 176.797974,254.519379 175.946762,256.689240 
M186.946655,243.635422 
	C186.946655,246.589981 186.946655,249.544525 186.946655,253.217072 
	C188.788315,252.876068 191.236191,252.713150 191.260773,252.374329 
	C191.581757,247.951996 191.675308,243.498993 191.455658,239.072113 
	C191.432114,238.597794 189.081039,238.238968 187.296570,237.660126 
	C187.147369,239.810303 187.047058,241.255875 186.946655,243.635422 
M258.971008,233.390656 
	C258.971008,235.141220 258.971008,236.891800 258.971008,239.062317 
	C261.074188,238.856033 262.436981,238.722382 264.067108,238.562500 
	C264.067108,234.713531 263.975830,231.267563 264.090607,227.828476 
	C264.228760,223.688339 262.210083,223.639740 258.971100,224.964584 
	C258.971100,227.540649 258.971100,229.998215 258.971008,233.390656 
M283.184509,228.831848 
	C283.184509,226.067566 283.184509,223.303299 283.184509,219.862549 
	C281.615265,220.534332 280.169006,220.821747 280.138245,221.218887 
	C279.883240,224.508362 279.824493,227.819748 279.904663,231.119705 
	C279.914154,231.511093 281.116455,231.873520 281.765869,232.249390 
	C282.238464,231.370880 282.711090,230.492371 283.184509,228.831848 
M196.285767,257.112701 
	C197.136810,258.230682 197.987854,259.348663 198.838898,260.466644 
	C199.226456,260.179291 199.614029,259.891937 200.001587,259.604584 
	C200.001587,255.866653 200.001587,252.128723 200.001587,248.390808 
	C199.571213,248.121002 199.140839,247.851212 198.710464,247.581421 
	C197.905136,248.643158 196.670532,249.605515 196.396194,250.790207 
	C195.995804,252.519363 196.285355,254.408279 196.285767,257.112701 
M284.105530,210.334747 
	C283.982361,213.089813 284.099152,215.563477 287.855347,213.753952 
	C287.855347,210.902924 287.855347,208.184387 287.855347,205.445877 
	C284.366730,205.809525 284.366730,205.809525 284.105530,210.334747 
M243.586456,246.109528 
	C242.895172,248.964905 242.203888,251.820267 241.512604,254.675644 
	C241.981064,254.954468 242.449524,255.233292 242.917984,255.512115 
	C243.916733,255.040634 245.802811,254.497253 245.771362,254.109238 
	C245.553787,251.424103 244.936981,248.771301 243.586456,246.109528 
M329.052216,238.423843 
	C328.478607,236.982635 327.905029,235.541412 327.331421,234.100204 
	C326.599792,235.578827 325.330536,237.041199 325.285156,238.540588 
	C325.238281,240.090927 326.379913,241.677231 327.001617,243.247787 
	C327.685150,241.927719 328.368683,240.607651 329.052216,238.423843 
M205.080215,239.341614 
	C205.082611,238.511780 205.305603,237.601685 205.039230,236.869659 
	C204.558060,235.547379 203.784485,234.331482 203.133026,233.071167 
	C202.404602,234.422882 201.556183,235.727371 200.998032,237.146072 
	C200.716125,237.862579 200.799500,238.829102 201.008911,239.603897 
	C201.236145,240.444595 201.801849,241.193802 202.219955,241.982910 
	C203.162537,241.404709 204.105103,240.826508 205.080215,239.341614 
z"/>
<path fill="#A4CB45" opacity="1.000000" stroke="none" 
	d="
M304.078125,250.992157 
	C301.247742,249.998947 301.247742,249.998947 300.597809,244.137360 
	C296.426910,244.397964 296.299652,241.653534 296.307800,238.348389 
	C296.387695,205.850174 296.401031,173.351517 296.289276,140.853485 
	C296.277649,137.470932 297.166901,135.428299 300.290222,133.748581 
	C308.500183,129.333282 316.483459,124.497078 324.571228,119.853264 
	C325.807556,119.143410 327.119293,118.564941 329.050659,117.598030 
	C329.050659,119.935966 329.050629,121.550652 329.050659,123.165329 
	C329.051178,157.163666 329.051727,191.162018 329.051788,225.160355 
	C329.051788,226.160278 329.272247,227.233032 328.979980,228.139648 
	C328.688446,229.043793 327.880463,229.781418 327.298920,230.592056 
	C326.579834,229.720993 325.333679,228.902390 325.240784,227.969025 
	C324.964478,225.193008 325.141693,222.371857 325.141693,219.347702 
	C323.419312,219.347702 322.157318,219.347702 320.153198,219.347702 
	C320.153198,223.227097 320.153198,227.080566 320.153198,231.312637 
	C317.210022,229.673187 314.979218,228.430573 311.888123,226.708725 
	C311.577484,230.653458 311.397888,232.934219 311.193451,235.530060 
	C309.371094,235.776138 307.627930,236.011520 305.617523,236.282974 
	C305.256958,241.155884 304.895691,246.037903 304.078125,250.992157 
M314.941040,203.315186 
	C314.736145,205.558456 314.309937,207.818649 314.479248,210.033325 
	C314.522491,210.599228 316.892639,211.721512 317.432190,211.381119 
	C319.237274,210.242294 317.890381,204.201294 314.941040,203.315186 
z"/>
<path fill="#E63137" opacity="1.000000" stroke="none" 
	d="
M195.774170,134.866760 
	C198.799530,133.158142 201.501663,131.623138 204.733383,129.787308 
	C204.865738,131.972229 205.027390,133.403229 205.028076,134.834305 
	C205.042648,164.830215 205.039230,194.826141 205.038086,224.822052 
	C205.038055,225.655151 205.272705,226.603180 204.954147,227.292511 
	C204.548569,228.170120 203.689880,228.838318 203.026520,229.596771 
	C202.357452,228.843445 201.179871,228.133377 201.111435,227.328949 
	C200.873245,224.529388 201.019363,221.697128 201.019363,218.758118 
	C197.189087,217.085831 195.640915,218.102020 195.775772,222.106064 
	C195.864410,224.738113 195.548569,227.383789 195.422150,229.860550 
	C192.673721,228.389221 190.565201,227.260468 187.589722,225.667603 
	C187.315063,229.391861 187.147766,231.660141 186.960068,234.205185 
	C185.153519,234.512604 183.409546,234.809357 181.075638,235.206512 
	C181.075638,239.932419 181.075638,244.683929 181.075638,249.788147 
	C179.360550,249.703629 177.529221,250.021439 177.283325,249.536072 
	C175.474899,245.966248 172.652267,242.253525 172.603241,238.553299 
	C172.221329,209.728943 172.334259,180.896881 172.528564,152.068787 
	C172.540985,150.225983 174.060287,147.699173 175.643845,146.682755 
	C182.083878,142.549088 188.822418,138.880463 195.774170,134.866760 
M192.577667,210.678314 
	C192.818115,208.300400 193.153000,205.925430 193.226837,203.542358 
	C193.243484,203.004745 192.439270,202.254196 191.838257,201.966064 
	C191.548523,201.827194 190.381302,202.595093 190.413849,202.849884 
	C190.755142,205.522079 191.259064,208.173508 192.577667,210.678314 
z"/>
<path fill="#33AADF" opacity="1.000000" stroke="none" 
	d="
M242.004532,235.162186 
	C242.342682,231.007706 240.485382,230.537643 236.924072,231.724594 
	C236.924072,235.390961 236.924072,239.113846 236.924072,242.877121 
	C234.148926,241.750565 231.923111,240.847000 229.697296,239.943451 
	C229.067902,242.401505 228.438492,244.859543 227.726303,247.640869 
	C226.255447,247.819748 224.499329,248.033295 222.248428,248.307022 
	C222.248428,253.161774 222.248428,257.920593 222.248428,262.734863 
	C215.412048,264.125061 218.888290,258.524109 216.726990,256.143707 
	C216.161758,255.960327 214.934174,255.562027 213.773361,255.185379 
	C213.572083,254.804810 213.292786,254.522949 213.292084,254.240417 
	C213.227066,228.100784 213.160324,201.961060 213.207214,175.821548 
	C213.209534,174.533386 213.847336,172.631714 214.811218,172.054718 
	C224.762085,166.097946 234.841156,160.355301 245.655472,154.107666 
	C245.820862,156.511047 246.019196,158.059738 246.020340,159.608566 
	C246.039658,185.585907 246.034668,211.563263 246.033127,237.540619 
	C246.033081,238.539566 246.295212,239.663391 245.923553,240.502396 
	C245.550232,241.345108 244.536407,241.904083 243.803268,242.587387 
	C243.215271,241.925873 242.239899,241.328049 242.118530,240.589813 
	C241.851685,238.966827 242.016495,237.272873 242.004532,235.162186 
z"/>
<path fill="#F1B72F" opacity="1.000000" stroke="none" 
	d="
M270.347565,205.360718 
	C268.529846,206.382370 266.768860,206.972046 264.406006,207.763229 
	C264.406006,211.955170 264.406006,216.690018 264.406006,221.656784 
	C261.455078,222.304398 259.418274,222.595749 259.721588,218.862762 
	C259.886536,216.832748 259.997833,214.834869 256.909424,214.727631 
	C256.360535,214.708572 255.440994,212.731415 255.433746,211.653458 
	C255.335434,197.019958 255.322861,182.385193 255.449478,167.752136 
	C255.460190,166.513351 256.289978,164.734818 257.293518,164.136124 
	C267.230316,158.207916 277.284088,152.475815 287.862091,146.366348 
	C287.862091,165.263107 287.862091,183.418381 287.862091,201.579132 
	C284.531525,201.484924 284.531525,201.484924 283.941406,190.437820 
	C282.624115,190.307175 281.238098,190.169708 279.188110,189.966385 
	C279.188110,194.153702 279.188110,198.032043 279.188110,202.227097 
	C276.242157,200.741318 273.888275,199.554153 270.404297,197.797043 
	C270.404297,201.340057 270.404297,203.134399 270.347565,205.360718 
M273.241425,178.521820 
	C273.947784,180.041473 274.654144,181.561127 275.360504,183.080780 
	C275.888458,181.543823 276.432587,180.012085 276.930267,178.465378 
	C277.026978,178.164856 277.044922,177.761963 276.924103,177.481812 
	C276.404236,176.276459 275.819122,175.099274 275.257751,173.911819 
	C274.585938,175.156219 273.914093,176.400620 273.241425,178.521820 
M267.414856,183.978088 
	C267.387482,185.767593 267.144806,187.594757 267.447632,189.326523 
	C267.555939,189.945877 268.983063,190.334610 269.808258,190.828613 
	C270.180695,189.025757 270.912170,187.192627 270.763916,185.433655 
	C270.696594,184.634476 268.887115,183.982101 267.414856,183.978088 
z"/>
<path fill="#D5D5D5" opacity="1.000000" stroke="none" 
	d="
M149.481415,365.633789 
	C154.398285,365.629120 158.862671,365.629120 165.294876,365.629120 
	C163.497910,368.848785 162.042145,370.802460 161.288635,372.997223 
	C160.580338,375.060272 160.613510,377.377838 160.273834,379.934204 
	C163.764542,379.934204 166.673615,379.934204 170.028595,379.934204 
	C169.545380,377.116730 172.090942,373.946686 167.727295,371.865448 
	C166.814270,371.429962 167.215454,368.239044 166.972229,365.953278 
	C172.826202,365.953278 178.232544,365.953278 184.827271,365.953278 
	C179.796555,377.803589 179.165070,389.598663 185.161682,401.675598 
	C178.598679,401.675598 173.200638,401.675598 167.382599,401.675598 
	C167.685287,399.158722 165.395432,396.312805 169.627777,394.403442 
	C170.621078,393.955353 170.095947,390.141449 170.293991,387.554688 
	C166.916977,387.554688 164.047577,387.554688 160.829681,387.554688 
	C161.052521,390.433563 158.526199,393.496399 162.963562,395.568268 
	C163.984390,396.044922 163.668167,399.385132 164.016388,401.739716 
	C157.995865,401.739716 152.600082,401.739716 145.592728,401.739716 
	C147.055801,398.837189 148.237259,396.738129 149.169556,394.533691 
	C149.592667,393.533173 149.642456,392.325134 149.654449,391.209045 
	C149.704422,386.551331 149.854721,381.882233 149.580750,377.240173 
	C149.482132,375.569336 148.173859,374.001434 147.631271,372.317749 
	C146.845352,369.878906 144.955261,367.100677 149.481415,365.633789 
z"/>
<path fill="#D4D4D5" opacity="1.000000" stroke="none" 
	d="
M123.169601,375.028381 
	C123.697105,379.488525 124.798454,383.666626 124.327637,387.659363 
	C123.138779,397.741394 116.490761,403.026917 106.177292,402.961945 
	C96.280968,402.899567 89.352325,397.137939 88.064308,387.899750 
	C86.529633,376.892395 91.202690,368.310944 100.249062,365.523956 
	C109.684891,362.617035 118.632675,366.206543 123.169601,375.028381 
M110.967239,377.845337 
	C109.196564,376.188049 107.425896,374.530731 105.655243,372.873413 
	C104.142693,374.846405 101.633797,376.680939 101.336151,378.822723 
	C100.804497,382.648346 101.197990,386.750397 102.043732,390.550140 
	C102.405663,392.176178 105.181725,394.662933 106.309814,394.399414 
	C108.094231,393.982666 110.374504,391.771088 110.730728,389.978455 
	C111.457382,386.321686 111.042084,382.438019 110.967239,377.845337 
z"/>
<path fill="#D1D2D3" opacity="1.000000" stroke="none" 
	d="
M191.778854,306.406860 
	C189.806290,304.691010 187.735855,302.093262 186.136551,302.356659 
	C184.294724,302.659943 182.375702,305.257446 181.410309,307.294647 
	C180.551163,309.107666 180.290726,311.748138 180.946304,313.607147 
	C181.917358,316.360809 183.393860,319.844330 185.664536,320.956635 
	C187.633820,321.921295 191.048264,320.157532 193.736343,319.318756 
	C194.742981,319.004669 195.502182,317.897461 196.526993,317.021240 
	C198.508469,319.180054 200.395523,321.236023 202.258255,323.265472 
	C194.188721,332.069489 182.212982,333.415466 174.273682,326.668304 
	C166.845749,320.355713 166.173157,307.097931 172.869217,298.983795 
	C177.627197,293.218170 183.540741,291.776978 190.101303,294.702240 
	C190.836578,295.030060 191.800491,295.172302 192.580109,295.014313 
	C195.307205,294.461731 197.999985,293.739868 201.556534,292.875549 
	C201.556534,296.265076 201.556549,298.530975 201.556549,300.796875 
	C201.556549,303.103760 201.556534,305.410645 201.556534,309.081726 
	C197.936142,308.223267 194.912674,307.506348 191.778854,306.406860 
z"/>
<path fill="#D1D2D2" opacity="1.000000" stroke="none" 
	d="
M267.046295,402.040192 
	C266.036896,401.743317 265.413544,401.527069 264.790192,401.310791 
	C264.446167,401.518738 264.102173,401.726654 263.758179,401.934601 
	C264.553070,403.293182 265.610504,404.567963 266.077789,406.031158 
	C266.689117,407.945435 266.834076,410.008667 267.250458,412.417389 
	C261.769348,412.417389 256.859253,412.417389 250.871536,412.417389 
	C254.165344,400.454620 254.805496,388.521698 250.292557,375.784332 
	C255.471786,376.086548 259.513275,376.336182 263.556793,376.547699 
	C264.454224,376.594635 265.400299,376.671356 266.253265,376.455231 
	C272.653259,374.833618 277.090820,375.930939 280.034943,380.333221 
	C283.582581,385.637970 283.667755,391.310638 280.753143,396.885437 
	C278.332123,401.516205 273.858002,403.122284 267.046295,402.040192 
M271.089447,391.923279 
	C271.158691,391.269501 271.444580,390.545288 271.258911,389.974426 
	C270.532684,387.741394 269.739838,385.517456 268.730621,383.405365 
	C268.607880,383.148529 266.367218,383.351288 266.221924,383.748474 
	C265.359192,386.107117 264.809753,388.582123 264.200165,391.029205 
	C264.130280,391.309814 264.249939,391.732147 264.435944,391.966217 
	C265.411560,393.193817 266.272339,395.057495 267.500244,395.356506 
	C268.381897,395.571167 269.777100,393.676788 271.089447,391.923279 
z"/>
<path fill="#D3D4D4" opacity="1.000000" stroke="none" 
	d="
M248.968842,385.142395 
	C248.189575,389.806061 248.400040,394.719910 246.275711,398.214539 
	C242.963684,403.663025 237.103241,403.346283 230.574066,400.987732 
	C231.953827,404.931335 233.122681,408.272125 234.554276,412.363922 
	C228.541565,412.363922 223.642395,412.363922 217.694351,412.363922 
	C220.785507,400.486359 221.661972,388.556000 217.263779,376.382050 
	C219.343872,376.202209 220.604477,376.030975 221.868958,375.994873 
	C226.850937,375.852722 231.835770,375.799622 236.816452,375.625427 
	C242.646973,375.421478 246.211105,378.069824 248.968842,385.142395 
M238.017105,391.067352 
	C238.039841,390.410889 238.315277,389.613342 238.041306,389.122467 
	C236.887192,387.054626 235.569138,385.078247 234.311081,383.068420 
	C233.178940,385.192749 232.013626,387.300629 230.945404,389.456604 
	C230.754700,389.841522 230.795593,390.529785 231.021423,390.899780 
	C231.989349,392.485535 233.066437,394.004608 234.103714,395.548004 
	C235.379868,394.319885 236.656036,393.091766 238.017105,391.067352 
z"/>
<path fill="#D4D5D5" opacity="1.000000" stroke="none" 
	d="
M303.424500,383.523621 
	C302.427002,381.035461 301.681610,378.919586 300.505280,375.580627 
	C306.107178,376.112122 310.213104,376.501709 315.638947,377.016510 
	C317.644104,375.254456 321.380707,373.974152 325.726379,375.957458 
	C330.137512,377.970703 330.243774,382.104919 330.787750,386.077698 
	C331.488800,391.197906 332.316956,396.300659 333.137787,401.724365 
	C328.817932,401.724365 324.726166,401.724365 319.990295,401.724365 
	C319.990295,397.202271 320.246918,392.587280 319.858063,388.027313 
	C319.712036,386.314789 318.066956,384.730164 317.105286,383.087219 
	C316.047333,384.708923 314.525085,386.207703 314.054413,387.984924 
	C313.521454,389.997345 313.931458,392.259491 313.931458,394.677643 
	C319.260498,394.851074 317.505096,398.495209 317.619873,401.693451 
	C312.309875,401.693451 307.225525,401.693451 301.786652,401.693451 
	C302.413971,395.785828 303.045288,389.840881 303.424500,383.523621 
z"/>
<path fill="#D2D3D4" opacity="1.000000" stroke="none" 
	d="
M283.110107,317.860565 
	C282.346313,313.133575 281.584778,308.862213 280.761475,304.244568 
	C285.215607,304.244568 289.149628,304.244568 293.829285,304.244568 
	C293.829285,308.820343 293.569580,313.441254 293.963837,318.005676 
	C294.110596,319.705078 295.786774,321.272339 296.765533,322.899872 
	C297.750793,321.191254 299.125519,319.585663 299.612396,317.745178 
	C300.105682,315.880646 299.721252,313.783844 299.721252,311.788788 
	C299.281250,311.942108 298.841278,312.095428 298.401276,312.248749 
	C297.432037,309.826630 296.462769,307.404480 295.214142,304.284180 
	C300.710999,304.284180 304.963104,304.284180 309.873779,304.284180 
	C309.873779,305.852722 309.707458,307.469910 309.904175,309.041626 
	C310.562134,314.298279 308.018524,319.947418 312.122070,324.859497 
	C312.926056,325.821899 312.237823,328.030884 312.237823,330.309235 
	C308.123901,329.940826 304.489532,329.615387 300.855164,329.289917 
	C300.931427,328.915009 301.007721,328.540100 301.083984,328.165192 
	C298.491913,329.049500 295.940979,330.517639 293.299744,330.703552 
	C286.634888,331.172668 283.705566,327.369263 283.110107,317.860565 
z"/>
<path fill="#D2D3D4" opacity="1.000000" stroke="none" 
	d="
M212.751465,383.741302 
	C213.787140,389.896210 214.763611,395.626556 215.922333,402.426483 
	C211.866684,401.881287 207.958298,401.327698 204.039993,400.856750 
	C203.385147,400.778046 202.626984,400.922729 202.018509,401.193390 
	C196.247528,403.760559 191.394821,403.340454 188.336975,399.765869 
	C185.636765,396.609283 185.572189,393.103302 187.596191,389.580780 
	C189.955429,385.474823 194.700287,384.063080 200.784561,385.521484 
	C201.081375,385.592621 201.395996,385.589569 201.702850,385.615906 
	C200.907776,381.100220 198.809265,380.768402 189.449509,383.865570 
	C188.818634,382.083313 188.184372,380.291473 187.582626,378.591553 
	C197.465347,371.406250 209.224213,373.740753 212.751465,383.741302 
M200.304016,395.906525 
	C200.830841,394.745026 201.357651,393.583557 201.884460,392.422058 
	C200.754288,391.997559 199.577515,391.161285 198.509033,391.282135 
	C197.691635,391.374634 197.011139,392.677246 196.269760,393.441620 
	C197.354996,394.314117 198.440231,395.186615 200.304016,395.906525 
z"/>
<path fill="#CDCFD0" opacity="1.000000" stroke="none" 
	d="
M353.607422,376.163849 
	C360.842163,379.981384 362.521393,383.848053 360.422211,391.819153 
	C355.425842,391.819153 350.312988,391.819153 344.997375,391.819153 
	C347.439148,396.652405 349.539215,396.946289 357.318329,393.626251 
	C358.548950,395.058197 359.897858,396.627777 361.253052,398.204681 
	C354.414673,403.878815 345.222015,404.599396 339.373016,400.133789 
	C334.294830,396.256592 332.685242,388.602692 335.663513,382.494171 
	C338.604919,376.461273 345.162292,374.049744 353.607422,376.163849 
z"/>
<path fill="#D3D4D4" opacity="1.000000" stroke="none" 
	d="
M256.879303,305.706177 
	C268.985504,300.198914 280.071014,306.322327 279.534393,317.831879 
	C279.226593,324.433472 275.399506,328.852936 268.745209,330.291046 
	C261.839600,331.783478 254.863403,328.812836 252.155243,323.226624 
	C249.270493,317.276123 250.919373,310.822754 256.879303,305.706177 
M262.975433,322.441925 
	C264.338715,322.637421 265.702026,322.832886 267.065338,323.028412 
	C267.380341,319.587769 267.921600,316.142273 267.848602,312.709900 
	C267.830719,311.869476 265.605286,310.252930 264.748810,310.459686 
	C263.653442,310.724121 262.259827,312.417664 262.158173,313.595673 
	C261.925385,316.293915 262.398895,319.053070 262.975433,322.441925 
z"/>
<path fill="#D3D4D4" opacity="1.000000" stroke="none" 
	d="
M223.617462,329.880707 
	C213.111221,332.059296 205.159027,327.709015 204.026245,319.468536 
	C202.984726,311.891937 206.915710,305.792877 214.039810,303.932190 
	C221.541428,301.972931 228.978149,305.266113 231.516647,311.671448 
	C234.467194,319.116577 231.668732,325.856171 223.617462,329.880707 
M219.845291,323.274323 
	C220.213165,319.702789 220.780212,316.129639 220.751114,312.561340 
	C220.746307,311.972809 218.128601,311.405609 216.718460,310.828522 
	C216.081146,313.593506 214.777634,316.426300 215.049652,319.098724 
	C215.220184,320.773987 217.759338,322.208130 219.845291,323.274323 
z"/>
<path fill="#D2D3D3" opacity="1.000000" stroke="none" 
	d="
M407.031616,386.874451 
	C407.924927,387.320770 409.162323,387.535248 409.648102,388.256195 
	C411.211578,390.576447 413.911469,393.344574 413.522583,395.450531 
	C413.066162,397.922028 409.945801,400.007019 407.739105,401.990723 
	C407.000458,402.654694 405.425964,402.879517 404.395020,402.632172 
	C401.708954,401.987701 399.133026,400.382507 396.473419,400.288818 
	C394.361023,400.214417 392.189911,401.807526 389.423218,402.907379 
	C389.423218,398.923615 389.423218,396.151855 389.423218,392.941650 
	C391.597717,392.764191 393.850708,392.580322 396.978943,392.325012 
	C395.569977,391.298859 394.802155,390.655457 393.956879,390.138794 
	C390.452850,387.996948 388.637665,385.019470 389.891937,380.915680 
	C391.243103,376.494965 395.399475,374.642456 398.938934,375.607666 
	C403.621368,376.884552 407.954193,376.825226 412.848175,375.582184 
	C412.848175,378.986908 412.848175,381.882019 412.848175,385.108246 
	C411.200562,385.187988 409.590515,385.265930 407.264191,385.122101 
	C404.613098,381.879028 402.407532,380.179565 397.780579,383.703796 
	C401.636475,385.025330 404.334045,385.949890 407.031616,386.874451 
M401.325684,396.001953 
	C402.219696,395.617310 403.113708,395.232666 404.007721,394.848022 
	C403.998352,394.453217 403.988983,394.058441 403.979614,393.663666 
	C401.476074,392.931335 398.972565,392.199005 396.469055,391.466705 
	C396.226288,391.945068 395.983551,392.423462 395.740814,392.901825 
	C397.328064,393.922089 398.915314,394.942352 401.325684,396.001953 
z"/>
<path fill="#D6D7D7" opacity="1.000000" stroke="none" 
	d="
M139.189667,390.746277 
	C139.282837,392.346527 139.166412,394.439240 139.500519,394.513855 
	C144.440155,395.616577 141.419235,399.193054 142.649704,401.825562 
	C137.086014,401.825562 132.311707,401.825562 126.335014,401.825562 
	C127.136986,399.282196 128.244034,397.120422 128.430313,394.882050 
	C128.755325,390.977051 129.518997,386.638977 128.203156,383.209839 
	C127.072304,380.262787 125.967384,378.353088 128.328064,375.766907 
	C128.885361,375.156372 128.872055,373.934479 128.939072,372.981049 
	C129.557098,364.186615 133.433136,361.042297 142.330322,362.235260 
	C143.635895,362.410309 144.908691,362.829987 146.518326,363.213013 
	C145.418121,365.978790 145.388580,368.924438 141.203705,369.268646 
	C140.155380,369.354889 139.398865,372.988556 138.276291,375.513550 
	C140.828888,375.863342 142.234802,376.055969 143.804932,376.271118 
	C143.804932,378.347046 143.804932,380.289459 143.804932,382.525848 
	C142.350769,382.746063 140.953232,382.957672 139.189621,383.224731 
	C139.189621,385.692841 139.189621,387.996490 139.189667,390.746277 
z"/>
<path fill="#D2D3D3" opacity="1.000000" stroke="none" 
	d="
M381.019775,386.925262 
	C382.959473,388.406097 385.657166,389.514221 386.621124,391.474792 
	C387.545837,393.355499 387.615906,397.144012 386.386719,398.276764 
	C384.052094,400.428253 379.818085,403.130768 377.630707,402.298584 
	C372.730774,400.434357 368.261658,402.600525 363.340363,401.847412 
	C363.340363,399.026093 363.340363,396.143005 363.340363,392.886383 
	C364.842987,392.796631 366.429657,392.701874 368.782593,392.750183 
	C371.765625,395.626923 374.218811,397.290131 377.944336,393.683411 
	C374.963715,392.786163 371.983063,391.888916 369.002441,390.991699 
	C363.459167,387.285187 361.867859,383.644501 364.061371,379.687317 
	C366.259949,375.721008 372.316956,374.405273 377.302246,376.560974 
	C378.292114,376.989014 379.713684,376.409424 380.937317,376.308197 
	C382.728729,376.160095 384.521149,376.024353 386.760590,375.848114 
	C386.850250,377.493378 386.958862,378.911499 386.996307,380.331512 
	C387.035065,381.802338 387.004883,383.274963 387.004883,385.081421 
	C385.149139,385.182343 383.563354,385.268555 381.226807,385.202881 
	C378.582520,382.080994 376.344818,380.464508 373.241394,382.252533 
	C373.048309,382.834717 372.855194,383.416901 372.662109,383.999054 
	C375.447998,384.974457 378.233887,385.949860 381.019775,386.925262 
z"/>
<path fill="#CFD1D1" opacity="1.000000" stroke="none" 
	d="
M242.919128,330.021759 
	C239.825592,330.021759 237.204346,330.021759 234.526642,330.021759 
	C235.194992,323.253174 236.294037,316.975769 236.300690,310.697174 
	C236.307419,304.352203 235.231720,298.006104 234.597214,291.312683 
	C238.183716,291.312683 241.925461,291.312683 246.475159,291.312683 
	C246.475159,298.369781 246.192642,305.602142 246.589478,312.796997 
	C246.800934,316.631042 244.267609,321.271362 249.306427,324.285706 
	C250.093857,324.756744 249.416565,327.676239 249.416565,330.021759 
	C247.267181,330.021759 245.329315,330.021759 242.919128,330.021759 
z"/>
<path fill="#D4D4D5" opacity="1.000000" stroke="none" 
	d="
M326.562653,321.833557 
	C327.733154,324.498505 328.830750,326.710541 330.330292,329.732635 
	C324.058594,329.732635 319.328064,329.732635 313.118195,329.732635 
	C317.743988,321.223175 317.624359,312.956879 312.695343,303.603424 
	C318.301178,304.141357 322.063751,304.502441 325.826324,304.863495 
	C325.742828,305.173187 325.659302,305.482849 325.575806,305.792542 
	C328.001038,304.644623 330.426300,303.496674 333.531799,302.026764 
	C333.531799,305.762207 333.531799,308.497589 333.531799,311.709412 
	C327.649628,312.014221 325.727661,315.740173 326.562653,321.833557 
z"/>
<path fill="#D4D4D5" opacity="1.000000" stroke="none" 
	d="
M284.908630,376.522858 
	C288.829559,376.180878 292.471069,376.180878 296.438080,376.180878 
	C296.548187,377.514679 296.656189,378.792725 296.758728,380.071228 
	C297.329803,387.190460 297.899567,394.309814 298.492340,401.711090 
	C294.343018,401.711090 289.749634,401.711090 283.847015,401.711090 
	C284.802856,399.053650 286.111389,396.759186 286.381439,394.348419 
	C286.780914,390.782196 286.649475,387.115753 286.343536,383.526093 
	C286.151520,381.273346 285.225800,379.083130 284.908630,376.522858 
z"/>
<path fill="#CFD1D1" opacity="1.000000" stroke="none" 
	d="
M286.143219,367.317017 
	C286.652863,366.240540 286.960236,365.398193 287.547180,364.861877 
	C290.384766,362.268982 294.217010,362.506012 296.196533,365.482971 
	C298.054382,368.276978 297.620575,370.905273 294.778168,372.775146 
	C291.872742,374.686401 288.052307,373.423340 286.423737,370.110443 
	C286.081635,369.414520 286.176361,368.503876 286.143219,367.317017 
z"/>
<path fill="#E6AF2F" opacity="1.000000" stroke="none" 
	d="
M275.069519,217.009781 
	C275.069489,219.919434 275.069489,222.359360 275.069489,225.015884 
	C273.240509,225.015884 271.844727,225.015884 270.350769,225.015884 
	C270.350769,219.993256 270.350769,215.269775 270.350769,210.278381 
	C271.838745,210.199585 273.097107,210.132965 275.069519,210.028534 
	C275.069519,212.362610 275.069519,214.451324 275.069519,217.009781 
z"/>
<path fill="#D43137" opacity="1.000000" stroke="none" 
	d="
M175.947479,256.226776 
	C176.797974,254.519379 177.647736,253.274445 178.497482,252.029510 
	C179.290894,253.345840 180.534912,254.585510 180.774811,255.995972 
	C181.159302,258.256500 181.186218,260.687927 180.764694,262.934601 
	C180.507889,264.303345 179.126770,265.461121 178.250671,266.713654 
	C177.483002,265.531921 176.273422,264.428223 176.047775,263.150757 
	C175.677856,261.056305 175.947083,258.848969 175.947479,256.226776 
z"/>
<path fill="#D43137" opacity="1.000000" stroke="none" 
	d="
M186.946701,243.168427 
	C187.047058,241.255875 187.147369,239.810303 187.296570,237.660126 
	C189.081039,238.238968 191.432114,238.597794 191.455658,239.072113 
	C191.675308,243.498993 191.581757,247.951996 191.260773,252.374329 
	C191.236191,252.713150 188.788315,252.876068 186.946655,253.217072 
	C186.946655,249.544525 186.946655,246.589981 186.946701,243.168427 
z"/>
<path fill="#E6AF2F" opacity="1.000000" stroke="none" 
	d="
M258.971069,232.923218 
	C258.971100,229.998215 258.971100,227.540649 258.971100,224.964584 
	C262.210083,223.639740 264.228760,223.688339 264.090607,227.828476 
	C263.975830,231.267563 264.067108,234.713531 264.067108,238.562500 
	C262.436981,238.722382 261.074188,238.856033 258.971008,239.062317 
	C258.971008,236.891800 258.971008,235.141220 258.971069,232.923218 
z"/>
<path fill="#F1B72F" opacity="1.000000" stroke="none" 
	d="
M283.184113,229.222870 
	C282.711090,230.492371 282.238464,231.370880 281.765869,232.249390 
	C281.116455,231.873520 279.914154,231.511093 279.904663,231.119705 
	C279.824493,227.819748 279.883240,224.508362 280.138245,221.218887 
	C280.169006,220.821747 281.615265,220.534332 283.184509,219.862549 
	C283.184509,223.303299 283.184509,226.067566 283.184113,229.222870 
z"/>
<path fill="#D43137" opacity="1.000000" stroke="none" 
	d="
M196.283279,256.670898 
	C196.285355,254.408279 195.995804,252.519363 196.396194,250.790207 
	C196.670532,249.605515 197.905136,248.643158 198.710464,247.581421 
	C199.140839,247.851212 199.571213,248.121002 200.001587,248.390808 
	C200.001587,252.128723 200.001587,255.866653 200.001587,259.604584 
	C199.614029,259.891937 199.226456,260.179291 198.838898,260.466644 
	C197.987854,259.348663 197.136810,258.230682 196.283279,256.670898 
z"/>
<path fill="#E6AF2F" opacity="1.000000" stroke="none" 
	d="
M284.105774,209.920929 
	C284.366730,205.809525 284.366730,205.809525 287.855347,205.445877 
	C287.855347,208.184387 287.855347,210.902924 287.855347,213.753952 
	C284.099152,215.563477 283.982361,213.089813 284.105774,209.920929 
z"/>
<path fill="#33AADF" opacity="1.000000" stroke="none" 
	d="
M244.017426,246.108826 
	C244.936981,248.771301 245.553787,251.424103 245.771362,254.109238 
	C245.802811,254.497253 243.916733,255.040634 242.917984,255.512115 
	C242.449524,255.233292 241.981064,254.954468 241.512604,254.675644 
	C242.203888,251.820267 242.895172,248.964905 244.017426,246.108826 
z"/>
<path fill="#A4CB45" opacity="1.000000" stroke="none" 
	d="
M329.052185,238.855713 
	C328.368683,240.607651 327.685150,241.927719 327.001617,243.247787 
	C326.379913,241.677231 325.238281,240.090927 325.285156,238.540588 
	C325.330536,237.041199 326.599792,235.578827 327.331421,234.100189 
	C327.905029,235.541412 328.478607,236.982635 329.052185,238.855713 
z"/>
<path fill="#D43137" opacity="1.000000" stroke="none" 
	d="
M205.063934,239.794952 
	C204.105103,240.826508 203.162537,241.404709 202.219955,241.982910 
	C201.801849,241.193802 201.236145,240.444595 201.008911,239.603897 
	C200.799500,238.829102 200.716125,237.862579 200.998032,237.146072 
	C201.556183,235.727371 202.404602,234.422882 203.133026,233.071167 
	C203.784485,234.331482 204.558060,235.547379 205.039230,236.869659 
	C205.305603,237.601685 205.082611,238.511780 205.063934,239.794952 
z"/>
<path fill="#263F4A" opacity="1.000000" stroke="none" 
	d="
M407.055237,386.627869 
	C404.334045,385.949890 401.636475,385.025330 397.780579,383.703796 
	C402.407532,380.179565 404.613098,381.879028 406.807587,385.149597 
	C407.159180,385.725342 407.163055,386.052826 407.055237,386.627869 
z"/>
<path fill="#263F4A" opacity="1.000000" stroke="none" 
	d="
M381.030945,386.680725 
	C378.233887,385.949860 375.447998,384.974457 372.662109,383.999054 
	C372.855194,383.416901 373.048309,382.834717 373.241394,382.252533 
	C376.344818,380.464508 378.582520,382.080994 380.777771,385.257996 
	C381.149200,385.791901 381.136749,386.115631 381.030945,386.680725 
z"/>
<path fill="#263F4A" opacity="1.000000" stroke="none" 
	d="
M368.997314,391.236267 
	C371.983063,391.888916 374.963715,392.786163 377.944336,393.683411 
	C374.218811,397.290131 371.765625,395.626923 369.228455,392.671875 
	C368.865387,392.121124 368.893433,391.797913 368.997314,391.236267 
z"/>
<path fill="#1C3B30" opacity="1.000000" stroke="none" 
	d="
M315.338562,203.147217 
	C317.890381,204.201294 319.237274,210.242294 317.432190,211.381119 
	C316.892639,211.721512 314.522491,210.599228 314.479248,210.033325 
	C314.309937,207.818649 314.736145,205.558456 315.338562,203.147217 
z"/>
<path fill="#0D2935" opacity="1.000000" stroke="none" 
	d="
M192.147827,210.754501 
	C191.259064,208.173508 190.755142,205.522079 190.413849,202.849884 
	C190.381302,202.595093 191.548523,201.827194 191.838257,201.966064 
	C192.439270,202.254196 193.243484,203.004745 193.226837,203.542358 
	C193.153000,205.925430 192.818115,208.300400 192.147827,210.754501 
z"/>
<path fill="#343F2C" opacity="1.000000" stroke="none" 
	d="
M273.241821,178.083420 
	C273.914093,176.400620 274.585938,175.156219 275.257751,173.911819 
	C275.819122,175.099274 276.404236,176.276459 276.924103,177.481812 
	C277.044922,177.761963 277.026978,178.164856 276.930267,178.465378 
	C276.432587,180.012085 275.888458,181.543823 275.360504,183.080780 
	C274.654144,181.561127 273.947784,180.041473 273.241821,178.083420 
z"/>
<path fill="#343F2C" opacity="1.000000" stroke="none" 
	d="
M267.641357,183.620605 
	C268.887115,183.982101 270.696594,184.634476 270.763916,185.433655 
	C270.912170,187.192627 270.180695,189.025757 269.808258,190.828613 
	C268.983063,190.334610 267.555939,189.945877 267.447632,189.326523 
	C267.144806,187.594757 267.387482,185.767593 267.641357,183.620605 
z"/>
<path fill="#072430" opacity="1.000000" stroke="none" 
	d="
M111.032227,378.246582 
	C111.042084,382.438019 111.457382,386.321686 110.730728,389.978455 
	C110.374504,391.771088 108.094231,393.982666 106.309814,394.399414 
	C105.181725,394.662933 102.405663,392.176178 102.043732,390.550140 
	C101.197990,386.750397 100.804497,382.648346 101.336151,378.822723 
	C101.633797,376.680939 104.142693,374.846405 105.655235,372.873413 
	C107.425896,374.530731 109.196564,376.188049 111.032227,378.246582 
z"/>
<path fill="#0D2935" opacity="1.000000" stroke="none" 
	d="
M271.016357,392.323303 
	C269.777100,393.676788 268.381897,395.571167 267.500244,395.356506 
	C266.272339,395.057495 265.411560,393.193817 264.435944,391.966217 
	C264.249939,391.732147 264.130280,391.309814 264.200165,391.029205 
	C264.809753,388.582123 265.359192,386.107117 266.221924,383.748474 
	C266.367218,383.351288 268.607880,383.148529 268.730621,383.405365 
	C269.739838,385.517456 270.532684,387.741394 271.258911,389.974426 
	C271.444580,390.545288 271.158691,391.269501 271.016357,392.323303 
z"/>
<path fill="#072430" opacity="1.000000" stroke="none" 
	d="
M237.974640,391.465515 
	C236.656036,393.091766 235.379868,394.319885 234.103729,395.548004 
	C233.066437,394.004608 231.989349,392.485535 231.021423,390.899780 
	C230.795593,390.529785 230.754700,389.841522 230.945404,389.456604 
	C232.013626,387.300629 233.178940,385.192749 234.311066,383.068420 
	C235.569138,385.078247 236.887192,387.054626 238.041306,389.122467 
	C238.315277,389.613342 238.039841,390.410889 237.974640,391.465515 
z"/>
<path fill="#0D2935" opacity="1.000000" stroke="none" 
	d="
M199.914734,395.982788 
	C198.440231,395.186615 197.354996,394.314117 196.269745,393.441620 
	C197.011139,392.677246 197.691635,391.374634 198.509033,391.282135 
	C199.577515,391.161285 200.754288,391.997559 201.884460,392.422058 
	C201.357651,393.583557 200.830841,394.745026 199.914734,395.982788 
z"/>
<path fill="#0D2935" opacity="1.000000" stroke="none" 
	d="
M262.780518,322.114716 
	C262.398895,319.053070 261.925385,316.293915 262.158173,313.595673 
	C262.259827,312.417664 263.653442,310.724121 264.748810,310.459686 
	C265.605286,310.252930 267.830719,311.869476 267.848602,312.709900 
	C267.921600,316.142273 267.380341,319.587769 267.065308,323.028381 
	C265.702026,322.832886 264.338715,322.637421 262.780518,322.114716 
z"/>
<path fill="#0D2935" opacity="1.000000" stroke="none" 
	d="
M219.540527,323.512390 
	C217.759338,322.208130 215.220184,320.773987 215.049652,319.098724 
	C214.777634,316.426300 216.081146,313.593506 216.718445,310.828522 
	C218.128601,311.405609 220.746307,311.972809 220.751114,312.561340 
	C220.780212,316.129639 220.213165,319.702789 219.540527,323.512390 
z"/>
<path fill="#001E2B" opacity="1.000000" stroke="none" 
	d="
M400.914124,395.982300 
	C398.915314,394.942352 397.328064,393.922089 395.740814,392.901825 
	C395.983551,392.423462 396.226288,391.945068 396.469055,391.466705 
	C398.972565,392.199005 401.476074,392.931335 403.979614,393.663666 
	C403.988983,394.058441 403.998352,394.453217 404.007721,394.848022 
	C403.113708,395.232666 402.219696,395.617310 400.914124,395.982300 
z"/>
</svg>